<?xml version="1.0" encoding="UTF-8" standalone="no"?>
<svg
   xmlns:dc="http://purl.org/dc/elements/1.1/"
   xmlns:cc="http://creativecommons.org/ns#"
   xmlns:rdf="http://www.w3.org/1999/02/22-rdf-syntax-ns#"
   xmlns:svg="http://www.w3.org/2000/svg"
   xmlns="http://www.w3.org/2000/svg"
   xmlns:sodipodi="http://sodipodi.sourceforge.net/DTD/sodipodi-0.dtd"
   xmlns:inkscape="http://www.inkscape.org/namespaces/inkscape"
   contentStyleType="text/css"
   height="286.5"
   preserveAspectRatio="none"
   version="1.1"
   viewBox="0 0 403.97705 286.5"
   width="403.97705"
   zoomAndPan="magnify"
   id="svg91"
   sodipodi:docname="st_PieceInternalState.svg"
   inkscape:version="0.92.4 (5da689c313, 2019-01-14)">
  <metadata
     id="metadata95">
    <rdf:RDF>
      <cc:Work
         rdf:about="">
        <dc:format>image/svg+xml</dc:format>
        <dc:type
           rdf:resource="http://purl.org/dc/dcmitype/StillImage" />
        <dc:title></dc:title>
      </cc:Work>
    </rdf:RDF>
  </metadata>
  <sodipodi:namedview
     pagecolor="#ffffff"
     bordercolor="#666666"
     borderopacity="1"
     objecttolerance="10"
     gridtolerance="10"
     guidetolerance="10"
     inkscape:pageopacity="0"
     inkscape:pageshadow="2"
     inkscape:window-width="1366"
     inkscape:window-height="705"
     id="namedview93"
     showgrid="false"
     fit-margin-top="5"
     fit-margin-left="5"
     fit-margin-right="5"
     fit-margin-bottom="5"
     inkscape:zoom="1.2227979"
     inkscape:cx="183.98435"
     inkscape:cy="171.1004"
     inkscape:window-x="-8"
     inkscape:window-y="-8"
     inkscape:window-maximized="1"
     inkscape:current-layer="svg91" />
  <defs
     id="defs2" />
  <rect
     id="rect6"
     y="5.25"
     x="158.25"
     width="54"
     style="fill:#f1f1f1;stroke:#181818;stroke-width:0.5"
     ry="12.5"
     rx="12.5"
     height="40" />
  <text
     style="font-size:14px;font-family:sans-serif;fill:#000000"
     id="text8"
     y="129.7285"
     x="165"
     textLength="44"
     lengthAdjust="spacing"
     font-size="14"
     transform="translate(-1.75,-98.75)">Hidden</text>
  <rect
     id="rect10"
     y="123.25"
     x="106.75"
     width="65"
     style="fill:#f1f1f1;stroke:#181818;stroke-width:0.5"
     ry="12.5"
     rx="12.5"
     height="40" />
  <text
     style="font-size:14px;font-family:sans-serif;fill:#000000"
     id="text12"
     y="247.7285"
     x="113.5"
     textLength="55"
     lengthAdjust="spacing"
     font-size="14"
     transform="translate(-1.75,-98.75)">Selected</text>
  <rect
     id="rect14"
     y="241.25"
     x="5.25"
     width="50"
     style="fill:#f1f1f1;stroke:#181818;stroke-width:0.5"
     ry="12.5"
     rx="12.5"
     height="40" />
  <text
     style="font-size:14px;font-family:sans-serif;fill:#000000"
     id="text16"
     y="365.72849"
     x="13"
     textLength="38"
     lengthAdjust="spacing"
     font-size="14"
     transform="translate(-1.75,-98.75)">Match</text>
  <rect
     id="rect18"
     y="241.25"
     x="270.75"
     width="65"
     style="fill:#f1f1f1;stroke:#181818;stroke-width:0.5"
     ry="12.5"
     rx="12.5"
     height="40" />
  <text
     style="font-size:14px;font-family:sans-serif;fill:#000000"
     id="text20"
     y="365.72849"
     x="277.5"
     textLength="55"
     lengthAdjust="spacing"
     font-size="14"
     transform="translate(-1.75,-98.75)">Unmatch</text>
  <rect
     id="rect22"
     y="241.25"
     x="138.25"
     width="70"
     style="fill:#f1f1f1;stroke:#181818;stroke-width:0.5"
     ry="12.5"
     rx="12.5"
     height="40" />
  <text
     style="font-size:14px;font-family:sans-serif;fill:#000000"
     id="text24"
     y="365.72849"
     x="145"
     textLength="60"
     lengthAdjust="spacing"
     font-size="14"
     transform="translate(-1.75,-98.75)">Removed</text>
  <g
     id="link_Hidden_Selected"
     transform="translate(-1.75,-98.75)">
    <path
       inkscape:connector-curvature="0"
       style="fill:none;stroke:#181818;stroke-width:1"
       id="Hidden-to-Selected"
       d="M 159.78,126.75 C 129.42,130.32 81.59,141.16 59,174 c -15.81,22.98 15.92,42.25 44.4,54.14" />
    <polygon
       id="polygon33"
       style="fill:#181818;stroke:#181818;stroke-width:1"
       points="108.3,230.13 101.4556,223.0481 103.6646,228.2558 98.4568,230.4648 " />
    <text
       style="font-size:13px;font-family:sans-serif;fill:#000000"
       id="text35"
       y="188.4951"
       x="60"
       textLength="37"
       lengthAdjust="spacing"
       font-size="13">Select</text>
  </g>
  <g
     id="g43"
     transform="translate(-1.75,-98.75)">
    <path
       inkscape:connector-curvature="0"
       style="fill:none;stroke:#181818;stroke-width:1"
       id="Hidden-backto-Selected"
       d="m 156.98,147.63 c -7.65,7.47 -14.87,16.44 -18.98,26.37 -6.28,15.17 -4.73,33.95 -2.08,47.77" />
    <polygon
       id="polygon39"
       style="fill:#181818;stroke:#181818;stroke-width:1"
       points="160.75,144.08 151.448,147.3161 157.1019,147.4992 156.9187,153.1531 " />
    <text
       style="font-size:13px;font-family:sans-serif;fill:#000000"
       id="text41"
       y="188.4951"
       x="139"
       textLength="51"
       lengthAdjust="spacing"
       font-size="13">Deselect</text>
  </g>
  <g
     id="g50"
     transform="translate(-1.75,-98.75)">
    <path
       inkscape:connector-curvature="0"
       style="fill:none;stroke:#181818;stroke-width:1"
       id="Hidden-backto-Selected-1"
       d="m 195.84,149.33 c 3.34,13.13 5.07,29.34 -0.84,42.67 -5.23,11.81 -14.86,21.98 -24.56,29.96" />
    <polygon
       id="polygon46"
       style="fill:#181818;stroke:#181818;stroke-width:1"
       points="194.44,144.27 193.0052,154.0138 195.7834,149.0862 200.711,151.8644 " />
    <text
       style="font-size:13px;font-family:sans-serif;fill:#000000"
       id="text48"
       y="188.4951"
       x="200"
       textLength="46"
       lengthAdjust="spacing"
       font-size="13">Timeout</text>
  </g>
  <g
     id="link_Hidden_Match"
     transform="translate(-1.75,-98.75)">
    <path
       inkscape:connector-curvature="0"
       style="fill:none;stroke:#181818;stroke-width:1"
       id="Hidden-to-Match"
       d="M 159.93,126.41 C 127.76,129.64 74.93,140.12 47,174 9.04,220.04 18.15,296.28 26.09,334.93" />
    <polygon
       id="polygon53"
       style="fill:#181818;stroke:#181818;stroke-width:1"
       points="27.15,339.91 29.1831,330.2733 26.1063,335.0202 21.3594,331.9433 " />
    <text
       style="font-size:13px;font-family:sans-serif;fill:#000000"
       id="text55"
       y="247.4951"
       x="25"
       textLength="49"
       lengthAdjust="spacing"
       font-size="13">Pair_OK</text>
  </g>
  <g
     id="link_Selected_Match"
     transform="translate(-1.75,-98.75)">
    <path
       inkscape:connector-curvature="0"
       style="fill:none;stroke:#181818;stroke-width:1"
       id="Selected-to-Match"
       d="m 123,262.16 c -19.01,20.23 -48.99,52.13 -69.3,73.75" />
    <polygon
       id="polygon59"
       style="fill:#181818;stroke:#181818;stroke-width:1"
       points="50.03,339.82 59.1036,335.9899 53.4497,336.1723 53.2673,330.5184 " />
    <text
       style="font-size:13px;font-family:sans-serif;fill:#000000"
       id="text61"
       y="306.49509"
       x="95"
       textLength="50"
       lengthAdjust="spacing"
       font-size="13">Matched</text>
  </g>
  <g
     id="link_Hidden_Unmatch"
     transform="translate(-1.75,-98.75)">
    <path
       inkscape:connector-curvature="0"
       style="fill:none;stroke:#181818;stroke-width:1"
       id="Hidden-to-Unmatch"
       d="m 214.07,138.61 c 14.13,8.4 30.58,20.43 40.93,35.39 34.64,50.07 45.3,123.09 48.57,160.66" />
    <polygon
       id="polygon65"
       style="fill:#181818;stroke:#181818;stroke-width:1"
       points="304,339.94 307.2674,330.6489 303.6001,334.956 299.2931,331.2887 " />
    <text
       style="font-size:13px;font-family:sans-serif;fill:#000000"
       id="text67"
       y="247.4951"
       x="293"
       textLength="46"
       lengthAdjust="spacing"
       font-size="13">Pair_No</text>
  </g>
  <g
     id="g75"
     transform="translate(-1.75,-98.75)">
    <path
       inkscape:connector-curvature="0"
       style="fill:none;stroke:#181818;stroke-width:1"
       id="Hidden-backto-Unmatch"
       d="m 219.2,133.02 c 39.48,11.83 104.18,38.27 128.8,88.98 19.38,39.92 -8.98,90.56 -28.06,117.71" />
    <polygon
       id="polygon71"
       style="fill:#181818;stroke:#181818;stroke-width:1"
       points="214.04,131.51 221.56,137.87 218.84,132.91 223.8,130.19 " />
    <text
       style="font-size:13px;font-family:sans-serif;fill:#000000"
       id="text73"
       y="247.4951"
       x="355"
       textLength="46"
       lengthAdjust="spacing"
       font-size="13">Timeout</text>
  </g>
  <g
     id="link_Selected_Unmatch"
     transform="translate(-1.75,-98.75)">
    <path
       inkscape:connector-curvature="0"
       style="fill:none;stroke:#181818;stroke-width:1"
       id="Selected-to-Unmatch"
       d="m 158.17,262.15 c 13.46,14.3 33.14,33.74 52.83,47.85 17.5,12.55 38.64,23.86 56.43,32.45" />
    <polygon
       id="polygon78"
       style="fill:#181818;stroke:#181818;stroke-width:1"
       points="272.36,344.79 265.9641,337.3005 267.8486,342.6342 262.5149,344.5187 " />
    <text
       style="font-size:13px;font-family:sans-serif;fill:#000000"
       id="text80"
       y="306.49509"
       x="212"
       textLength="66"
       lengthAdjust="spacing"
       font-size="13">Unmatched</text>
  </g>
  <g
     id="link_Match_Removed"
     transform="translate(-1.75,-98.75)">
    <path
       inkscape:connector-curvature="0"
       style="fill:none;stroke:#181818;stroke-width:1"
       id="Match-to-Removed"
       d="m 57.24,360 c 21.41,0 52.51,0 77.38,0" />
    <polygon
       id="polygon84"
       style="fill:#181818;stroke:#181818;stroke-width:1"
       points="139.83,360 130.83,356 134.83,360 130.83,364 " />
    <text
       style="font-size:13px;font-family:sans-serif;fill:#000000"
       id="text86"
       y="353.49509"
       x="75.5"
       textLength="46"
       lengthAdjust="spacing"
       font-size="13">Timeout</text>
  </g>
</svg>
